<svg width="182" height="85" viewBox="0 0 182 87" fill="none" xmlns="http://www.w3.org/2000/svg">
<path d="M62.523 52.1146C62.523 50.906 62.2292 49.7769 61.6436 48.7295C61.0603 47.6822 60.2582 46.8514 59.2441 46.2372C58.2255 45.6229 57.1008 45.3158 55.8701 45.3158C54.6393 45.3158 53.4837 45.6141 52.4541 46.2062C51.4266 46.8006 50.6157 47.6181 50.0213 48.6566C49.427 49.6929 49.1287 50.8574 49.1287 52.1455C49.1287 53.4337 49.4203 54.5341 50.0081 55.5615C50.5914 56.589 51.4023 57.3954 52.4408 57.981C53.4793 58.5665 54.6327 58.8582 55.9032 58.8582C57.1737 58.8582 58.2188 58.5555 59.2264 57.95C60.2362 57.3446 61.0382 56.5293 61.6304 55.5019C62.227 54.4744 62.523 53.3453 62.523 52.1168M62.3419 57.4662C61.6591 58.4936 60.751 59.3001 59.6219 59.8834C58.4928 60.4689 57.2555 60.7606 55.9054 60.7606C54.2725 60.7606 52.7745 60.3784 51.4156 59.6138C50.0545 58.8471 48.9829 57.8042 48.1963 56.4851C47.4119 55.1638 47.0186 53.6878 47.0186 52.0571C47.0186 50.4265 47.4229 48.977 48.2294 47.6579C49.0337 46.3366 50.1186 45.3003 51.4797 44.5424C52.8385 43.7868 54.3145 43.4111 55.9076 43.4111C57.2775 43.4111 58.5282 43.7028 59.6528 44.2883C60.7819 44.8717 61.6812 45.6892 62.3441 46.7343H62.4059V43.8332H64.5227V60.3695H62.4059V57.4684H62.3441L62.3419 57.4662Z" fill="black"/>
<path d="M75.6437 45.3136C74.0727 45.3136 72.8155 45.8461 71.8786 46.9155C70.9418 47.9827 70.4733 49.3438 70.4733 50.9966V60.3673H68.3566V43.831H70.4733V45.9477H70.533C71.0566 45.1434 71.7681 44.5181 72.6674 44.074C73.5623 43.6299 74.5456 43.4089 75.615 43.4089C77.1064 43.4089 78.399 43.7315 79.4994 44.3767C80.5975 45.0219 81.4394 45.9278 82.0227 47.0967C82.606 48.2678 82.8999 49.6156 82.8999 51.1468V60.3673H80.7831V51.1468C80.7831 49.9382 80.5622 48.8953 80.1181 48.0181C79.6739 47.1409 79.0597 46.4714 78.2731 46.0074C77.4887 45.5434 76.6115 45.3136 75.6437 45.3136Z" fill="black"/>
<path d="M101.517 52.1147C101.517 50.906 101.223 49.777 100.642 48.7296C100.056 47.6823 99.2522 46.8515 98.238 46.2372C97.2216 45.623 96.0969 45.3159 94.8684 45.3159C93.6399 45.3159 92.4489 45.6141 91.4215 46.2063C90.394 46.8007 89.5853 47.6182 89.0042 48.6567C88.4187 49.693 88.1248 50.8574 88.1248 52.1456C88.1248 53.4338 88.4165 54.5319 89.0042 55.5483C89.5875 56.5647 90.394 57.3712 91.4215 57.9656C92.4489 58.56 93.6089 58.8583 94.8993 58.8583C96.108 58.8583 97.2149 58.5556 98.2247 57.9501C99.2301 57.3447 100.034 56.5294 100.624 55.5019C101.221 54.4745 101.517 53.3454 101.517 52.1169M101.336 57.4662C100.631 58.5136 99.7095 59.3245 98.5694 59.899C97.4293 60.4735 96.2052 60.7607 94.8971 60.7607C93.262 60.7607 91.7662 60.3784 90.4073 59.6139C89.0462 58.8472 87.9746 57.8043 87.1879 56.4852C86.4013 55.1639 86.0103 53.6879 86.0103 52.0572C86.0103 50.4266 86.4146 48.9771 87.2211 47.658C88.0254 46.3367 89.1103 45.3004 90.4714 44.5425C91.8302 43.7868 93.3062 43.4112 94.8993 43.4112C96.1875 43.4112 97.4072 43.6985 98.5561 44.2707C99.7029 44.8452 100.631 45.6451 101.336 46.6747H101.398V38H103.512V60.3696H101.398V57.4684H101.336V57.4662Z" fill="black"/>
<path d="M122.316 52.1146C122.316 50.906 122.022 49.7769 121.436 48.7295C120.853 47.6822 120.051 46.8514 119.034 46.2372C118.018 45.6229 116.893 45.3158 115.663 45.3158C114.432 45.3158 113.276 45.6141 112.247 46.2062C111.219 46.8006 110.408 47.6181 109.814 48.6566C109.22 49.6929 108.921 50.8574 108.921 52.1455C108.921 53.4337 109.213 54.5341 109.801 55.5615C110.384 56.589 111.195 57.3954 112.233 57.981C113.272 58.5665 114.425 58.8582 115.694 58.8582C116.962 58.8582 118.011 58.5555 119.017 57.95C120.027 57.3446 120.829 56.5293 121.421 55.5019C122.017 54.4744 122.313 53.3453 122.313 52.1168M122.132 57.4662C121.45 58.4936 120.541 59.3001 119.412 59.8834C118.283 60.4689 117.046 60.7606 115.694 60.7606C114.061 60.7606 112.565 60.3784 111.206 59.6138C109.845 58.8471 108.773 57.8042 107.987 56.4851C107.202 55.1638 106.809 53.6878 106.809 52.0571C106.809 50.4265 107.213 48.977 108.02 47.6579C108.824 46.3366 109.909 45.3003 111.27 44.5424C112.629 43.7868 114.105 43.4111 115.696 43.4111C117.066 43.4111 118.316 43.7028 119.443 44.2883C120.572 44.8717 121.472 45.6892 122.134 46.7343H122.196V43.8332H124.313V60.3695H122.196V57.4684H122.134L122.132 57.4662Z" fill="black"/>
<path d="M130.266 43.831V46.2173H130.326C130.71 45.3313 131.258 44.6618 131.974 44.2088C132.69 43.7559 133.691 43.4885 134.981 43.4067V45.6428H134.953C133.459 45.7842 132.306 46.3035 131.49 47.2006C130.673 48.0976 130.266 49.2311 130.266 50.6011V60.3651H128.149V43.8288H130.266V43.831Z" fill="black"/>
<path d="M8.05018 76.9094H9.59426V86.6095H8.61617V79.8776C8.61617 79.236 8.62399 78.6543 8.63181 77.9736C8.40751 78.6517 8.1832 79.2568 7.92237 79.9219L5.24371 86.6069H4.34908L1.67042 79.9219C1.40177 79.2516 1.17746 78.6387 0.960976 77.9892C0.968801 78.6309 0.976626 79.2203 0.976626 79.8776V86.6095H-0.00146484V76.9094H1.54261L4.17694 83.6022C4.3856 84.1395 4.60208 84.7446 4.79509 85.3184C4.9881 84.7524 5.16024 84.2594 5.41324 83.6022L8.04757 76.9094H8.05018Z" fill="black"/>
<path d="M11.6495 81.7607C11.6495 78.8421 13.4936 76.7607 16.3652 76.7607C19.2369 76.7607 21.0731 78.8421 21.0731 81.7607C21.0731 84.6794 19.2369 86.7607 16.3652 86.7607C13.4936 86.7607 11.6495 84.6794 11.6495 81.7607ZM20.0011 81.7607C20.0011 79.3429 18.6292 77.6788 16.3678 77.6788C14.1065 77.6788 12.7267 79.3429 12.7267 81.7607C12.7267 84.1786 14.0987 85.8426 16.3678 85.8426C18.637 85.8426 20.0011 84.1786 20.0011 81.7607Z" fill="black"/>
<path d="M29.2029 76.9094H30.2931L26.8529 86.6095H25.5018L22.0615 76.9094H23.1518L25.3688 83.2683C25.6452 84.0664 25.9348 84.9767 26.1747 85.7227C26.4512 84.8489 26.7042 84.0873 26.9885 83.2683L29.2055 76.9094H29.2029Z" fill="black"/>
<path d="M32.161 86.6122V76.9121H38.0269V77.8146H33.1913V81.1427H37.6018V82.0164H33.1913V85.7097H38.1756V86.6122H32.161Z" fill="black"/>
<path d="M49.1196 76.9094H50.275L46.9548 83.2083V86.6121H45.948V83.2083L42.6277 76.9094H43.7831L46.454 82.2224L49.117 76.9094H49.1196Z" fill="black"/>
<path d="M51.0471 81.7607C51.0471 78.8421 52.8911 76.7607 55.7628 76.7607C58.6345 76.7607 60.4707 78.8421 60.4707 81.7607C60.4707 84.6794 58.6345 86.7607 55.7628 86.7607C52.8911 86.7607 51.0471 84.6794 51.0471 81.7607ZM59.3961 81.7607C59.3961 79.3429 58.0242 77.6788 55.7628 77.6788C53.5015 77.6788 52.1217 79.3429 52.1217 81.7607C52.1217 84.1786 53.4937 85.8426 55.7628 85.8426C58.032 85.8426 59.3961 84.1786 59.3961 81.7607Z" fill="black"/>
<path d="M62.4291 82.971L62.3848 76.9121H63.415V82.9632C63.415 84.9116 64.3331 85.8297 66.0415 85.8297C67.7499 85.8297 68.6758 84.9116 68.6758 82.9632V76.9121H69.7061L69.6618 82.971C69.6461 85.4697 68.4594 86.7608 66.0415 86.7608C63.6237 86.7608 62.4526 85.4619 62.4291 82.971Z" fill="black"/>
<path d="M79.1383 86.6122H77.8994L75.1242 82.4624H73.3402V86.6122H72.3099V76.9121H75.7789C77.7038 76.9121 78.8149 77.8146 78.8149 79.6586C78.8149 81.2418 77.8968 82.2251 76.3371 82.4259L79.1357 86.6122H79.1383ZM73.3402 77.7546V81.6487H75.6824C77.0413 81.6487 77.7481 80.9392 77.7481 79.6482C77.7481 78.3571 77.07 77.752 75.7267 77.752H73.3376L73.3402 77.7546Z" fill="black"/>
<path d="M84.4172 86.6122V76.9121H85.4475V85.741H90.1032V86.6148H84.4172V86.6122Z" fill="black"/>
<path d="M91.9707 86.6122V76.9121H93.001V86.6122H91.9707Z" fill="black"/>
<path d="M95.7475 86.6122V76.9121H101.574V77.8146H96.7751V81.3435H101.149V82.2094H96.7751V86.6122H95.7449H95.7475Z" fill="black"/>
<path d="M103.645 86.6122V76.9121H109.511V77.8146H104.675V81.1427H109.086V82.0164H104.675V85.7097H109.66V86.6122H103.645Z" fill="black"/>
<path d="M115.027 86.6122V76.9121H120.854V77.8146H116.055V81.3435H120.429V82.2094H116.055V86.6122H115.024H115.027Z" fill="black"/>
<path d="M122.231 81.7607C122.231 78.8421 124.075 76.7607 126.947 76.7607C129.818 76.7607 131.655 78.8421 131.655 81.7607C131.655 84.6794 129.818 86.7607 126.947 86.7607C124.075 86.7607 122.231 84.6794 122.231 81.7607ZM130.58 81.7607C130.58 79.3429 129.208 77.6788 126.947 77.6788C124.685 77.6788 123.306 79.3429 123.306 81.7607C123.306 84.1786 124.677 85.8426 126.947 85.8426C129.216 85.8426 130.58 84.1786 130.58 81.7607Z" fill="black"/>
<path d="M140.539 86.6122H139.3L136.525 82.4624H134.741V86.6122H133.711V76.9121H137.18C139.104 76.9121 140.216 77.8146 140.216 79.6586C140.216 81.2418 139.297 82.2251 137.738 82.4259L140.536 86.6122H140.539ZM134.741 77.7546V81.6487H137.083C138.442 81.6487 139.149 80.9392 139.149 79.6482C139.149 78.3571 138.471 77.752 137.127 77.752H134.738L134.741 77.7546Z" fill="black"/>
<path d="M152.891 76.9094H153.957L151.407 86.6095H150.063L148.339 80.334C148.198 79.8124 148.063 79.296 147.938 78.79C147.825 79.2386 147.721 79.6559 147.528 80.334L145.804 86.6095H144.461L141.91 76.9094H142.977L144.604 83.2735C144.797 84.056 144.969 84.8046 145.149 85.5636C145.342 84.7733 145.53 84.0351 145.739 83.2657L147.403 77.2146H148.477L150.134 83.297C150.35 84.0873 150.535 84.8124 150.723 85.5662C150.903 84.8046 151.073 84.0508 151.268 83.284L152.896 76.912L152.891 76.9094Z" fill="black"/>
<path d="M162.02 86.6122L161.094 84.0665H156.499L155.573 86.6122H154.469L158.082 76.9121H159.514L163.126 86.6122H162.023H162.02ZM156.804 83.224H160.789L158.797 77.7624L156.804 83.224Z" fill="black"/>
<path d="M171.821 86.6122H170.582L167.807 82.4624H166.023V86.6122H164.993V76.9121H168.462C170.387 76.9121 171.498 77.8146 171.498 79.6586C171.498 81.2418 170.58 82.2251 169.02 82.4259L171.819 86.6122H171.821ZM166.023 77.7546V81.6487H168.365C169.724 81.6487 170.431 80.9392 170.431 79.6482C170.431 78.3571 169.753 77.752 168.41 77.752H166.021L166.023 77.7546Z" fill="black"/>
<path d="M173.986 86.6122V76.9121H177.226C180.426 76.9121 182.001 78.8213 182.001 81.7478C182.001 84.6742 180.426 86.6122 177.226 86.6122H173.986ZM175.053 85.7097H177.239C179.784 85.7097 180.924 84.1734 180.924 81.7478C180.924 79.3221 179.782 77.8146 177.239 77.8146H175.053V85.7097Z" fill="black"/>
</svg>
